<svg width="16" height="18" viewBox="0 0 16 18" fill="none" xmlns="http://www.w3.org/2000/svg">
<path d="M7.99998 0C4.02378 0 0.78891 3.2349 0.78891 7.21107V7.41041C0.78891 9.42135 1.94182 11.7647 4.21573 14.3753C5.86414 16.2679 7.48951 17.5875 7.55786 17.6427L7.99998 18L8.44211 17.6428C8.51049 17.5875 10.1359 16.2679 11.7842 14.3754C14.0581 11.7647 15.2111 9.42138 15.2111 7.41045V7.21111C15.2111 3.2349 11.9762 0 7.99998 0ZM13.804 7.41045C13.804 10.8088 9.42529 14.9226 7.99998 16.1715C6.57429 14.9222 2.19593 10.8086 2.19593 7.41045V7.21111C2.19593 4.01077 4.79964 1.40706 7.99998 1.40706C11.2003 1.40706 13.804 4.01077 13.804 7.21111V7.41045Z" fill="white"/>
</svg>
